 <svg  version="1.0" xmlns="http://www.w3.org/2000/svg"  width="300.000000pt" height="300.000000pt" viewBox="0 0 300.000000 300.000000"  preserveAspectRatio="xMidYMid meet">  <g transform="translate(0.000000,300.000000) scale(0.100000,-0.100000)" fill="#00aaff" stroke="none"> <path d="M1265 2681 c-243 -43 -448 -145 -613 -305 -147 -141 -225 -308 -271 -580 l-17 -101 -45 -6 c-71 -8 -104 -34 -179 -132 -101 -135 -100 -131 -100 -373 0 -178 2 -210 17 -236 10 -16 63 -60 118 -97 399 -271 809 -433 1192 -472 394 -41 902 111 1366 408 172 111 206 137 223 179 19 45 19 402 1 454 -7 19 -45 78 -85 131 -78 104 -124 138 -190 141 l-40 1 -12 81 c-40 276 -144 490 -303 629 -230 201 -507 298 -838 296 -71 0 -167 -8 -224 -18z m450 -32 c231 -28 464 -145 635 -318 84 -86 142 -185 185 -316 36 -110 75 -337 82 -475 9 -197 22 -253 17 -76 -2 87 -7 169 -10 181 -3 13 -1 26 5 29 6 4 12 -11 16 -36 10 -76 25 -468 25 -665 0 -162 -2 -193 -14 -193 -8 0 -27 -11 -42 -25 -15 -14 -31 -25 -35 -25 -5 0 -75 -33 -156 -73 -82 -39 -151 -73 -155 -75 -4 -2 -5 17 -2 42 4 25 3 46 -2 46 -22 -1 -33 -19 -36 -59 -3 -44 -3 -44 -58 -63 -84 -28 -181 -59 -199 -63 -9 -2 -52 -13 -96 -24 -123 -30 -147 -33 -340 -36 -128 -3 -205 1 -265 12 -181 31 -204 37 -382 94 -89 28 -108 37 -109 54 -2 49 -7 67 -20 76 -11 7 -15 -1 -17 -36 l-3 -45 -37 20 c-20 11 -77 38 -127 60 -49 23 -106 50 -125 61 -19 11 -43 23 -52 26 -10 3 -18 9 -18 14 0 5 -10 9 -22 9 l-21 0 7 382 c8 440 13 512 39 531 13 9 23 40 33 97 18 107 51 241 62 252 5 5 23 1 40 -9 l32 -18 0 -105 c0 -58 7 -135 14 -171 14 -63 54 -157 81 -189 10 -11 11 -39 4 -115 -4 -55 -8 -215 -9 -355 0 -181 -4 -250 -11 -237 -8 13 -169 103 -261 145 -5 2 -8 -5 -8 -16 0 -14 32 -35 139 -88 88 -43 140 -75 140 -85 1 -24 27 -54 35 -41 4 7 19 3 43 -13 20 -14 40 -25 46 -25 5 0 5 -6 -2 -14 -15 -18 15 -31 35 -16 9 9 37 2 108 -24 408 -153 792 -151 1214 5 58 22 87 28 94 21 15 -15 41 -3 28 13 -8 10 -3 16 22 24 17 6 40 19 50 28 17 15 20 15 28 3 7 -12 11 -7 16 17 6 30 16 38 118 87 147 72 187 98 178 113 -6 9 -44 -6 -137 -54 -72 -36 -132 -70 -134 -75 -5 -15 -51 33 -51 54 0 10 5 18 10 18 6 0 10 -9 10 -20 0 -11 5 -20 10 -20 11 0 12 207 1 475 l-6 170 36 71 c54 105 72 200 67 347 l-4 122 17 -56 c9 -31 20 -73 23 -94 4 -20 8 -40 10 -44 2 -3 7 -40 10 -80 4 -41 9 -78 11 -81 4 -6 16 -272 17 -346 0 -22 4 -47 9 -55 14 -22 10 184 -6 361 -17 185 -37 294 -74 405 -29 88 -82 187 -88 168 -3 -8 -27 2 -66 26 -74 45 -110 59 -196 76 -139 27 -307 10 -381 -39 -54 -36 -68 -60 -105 -188 l-32 -111 -101 -1 -101 -1 -5 28 c-3 16 -18 67 -33 114 -28 90 -63 142 -114 169 -45 23 -48 16 -4 -9 22 -12 49 -37 61 -54 80 -120 66 -424 -25 -549 -17 -23 -27 -45 -23 -49 4 -5 2 -5 -4 -2 -7 4 -38 -9 -70 -28 -149 -90 -355 -107 -486 -41 -36 19 -45 21 -41 9 3 -9 36 -29 72 -46 73 -33 120 -38 255 -25 84 8 227 58 249 87 7 9 26 25 42 36 40 25 60 45 45 45 -6 0 -8 5 -5 11 4 6 13 8 21 5 17 -7 36 36 27 60 -4 10 1 20 11 26 10 6 15 16 11 28 -3 11 0 20 10 23 8 4 14 1 12 -6 -1 -9 26 -13 95 -15 89 -2 97 -1 91 14 -5 14 -3 16 11 11 10 -4 19 -7 22 -7 2 0 1 -7 -2 -14 -3 -8 3 -25 15 -37 14 -15 18 -27 11 -38 -10 -18 6 -55 21 -46 5 4 6 11 3 17 -4 6 -2 8 4 5 5 -4 8 -15 5 -25 -3 -13 7 -27 34 -47 21 -16 48 -38 60 -49 20 -19 118 -61 171 -73 12 -3 22 -8 22 -12 0 -3 21 -4 46 -2 35 2 45 0 39 -9 -6 -9 -3 -9 15 0 18 10 24 9 31 -1 5 -8 9 -9 9 -3 0 6 19 11 48 10 59 0 161 39 186 71 l18 24 -49 -24 c-138 -70 -355 -52 -500 42 -34 22 -64 38 -67 35 -3 -2 -4 -1 -1 2 2 4 -7 21 -20 39 -45 58 -67 140 -72 267 -9 212 36 319 151 353 68 21 248 20 335 -1 234 -58 309 -172 299 -455 -4 -111 -8 -133 -38 -209 -42 -107 -107 -176 -190 -204 -82 -26 -183 -31 -263 -12 -65 15 -180 66 -191 85 -3 5 18 -4 47 -20 155 -84 406 -74 490 18 14 16 6 14 -40 -9 -138 -68 -316 -57 -470 28 -68 38 -126 99 -143 150 l-12 34 -123 0 c-111 0 -124 -2 -129 -18 -17 -51 -70 -115 -128 -152 -151 -98 -353 -114 -503 -41 l-60 30 34 -29 c97 -83 325 -92 474 -20 25 13 34 15 23 5 -32 -25 -126 -57 -204 -68 -92 -14 -212 8 -281 50 -108 67 -184 286 -165 480 3 41 3 73 -2 71 -5 -2 -24 4 -42 11 -41 17 -40 24 20 129 50 89 180 227 273 289 139 93 298 157 470 187 139 25 255 26 430 5z m-109 -685 c-3 -9 -6 -37 -6 -62 l0 -47 -96 1 -96 0 -4 62 -5 62 107 0 c93 0 105 -2 100 -16z m0 -272 c6 -4 14 -20 18 -37 23 -92 133 -187 269 -231 60 -19 89 -22 177 -20 58 2 114 6 125 9 11 3 23 6 27 6 3 1 21 13 38 27 17 15 33 24 36 22 2 -3 5 -162 7 -354 l2 -349 -65 -32 c-88 -43 -313 -117 -435 -143 -131 -27 -342 -37 -471 -21 -188 24 -558 137 -617 190 -18 15 -19 35 -15 358 1 188 6 344 10 348 4 4 17 -2 29 -14 13 -12 30 -21 39 -21 9 0 21 -5 27 -11 7 -7 58 -12 130 -12 99 -1 129 2 185 21 126 43 237 135 255 211 14 60 16 61 121 61 53 0 102 -4 108 -8z m-1264 -43 c2 -6 1 -34 -2 -63 -5 -42 -16 -64 -63 -127 l-57 -76 0 -91 c0 -84 2 -93 25 -116 73 -73 -28 -179 -109 -115 -36 28 -36 86 -1 119 23 22 25 30 25 114 0 101 2 107 92 229 74 99 52 93 -27 -8 -74 -94 -84 -123 -85 -229 0 -57 -4 -74 -21 -92 -11 -12 -23 -40 -26 -61 -10 -75 70 -133 136 -99 58 30 70 102 26 155 -24 28 -25 34 -19 111 6 74 11 89 47 142 21 32 40 58 42 56 7 -9 -9 -688 -16 -688 -16 0 -173 108 -204 140 l-30 31 -2 186 c-2 102 -5 188 -8 191 -9 10 -5 42 5 42 6 0 15 12 20 26 16 41 131 184 169 210 38 25 77 31 83 13z m2397 -9 c57 -29 222 -253 202 -273 -7 -7 -11 -79 -11 -198 0 -169 -2 -189 -19 -211 -21 -26 -209 -154 -216 -147 -5 5 -14 679 -9 679 2 0 15 -20 29 -44 14 -24 32 -49 39 -55 9 -8 14 -38 15 -91 1 -69 -2 -84 -21 -111 -35 -46 -30 -105 12 -142 27 -24 39 -28 69 -23 45 7 91 55 91 95 0 16 -12 44 -28 64 -26 32 -29 42 -25 96 6 83 -16 138 -90 232 -66 85 -103 111 -43 32 111 -149 111 -148 114 -250 4 -83 7 -97 28 -118 49 -49 13 -135 -56 -135 -71 0 -107 91 -55 140 23 21 25 31 25 105 l0 82 -57 79 c-45 61 -58 88 -64 128 -11 90 1 101 70 66z m-2057 -457 c-2 -164 -5 -304 -7 -310 -2 -7 -9 -13 -15 -13 -7 0 -8 6 0 19 6 12 10 129 10 310 0 160 3 291 8 291 4 0 6 -134 4 -297z m1658 257 c0 -16 -4 -32 -10 -35 -6 -4 -10 10 -10 35 0 25 4 39 10 35 6 -3 10 -19 10 -35z"/> <path d="M1120 2496 c-30 -12 -80 -35 -110 -50 -58 -30 -252 -157 -247 -163 2 -1 30 7 63 19 44 16 94 23 199 28 77 4 129 8 115 10 -14 2 -29 4 -35 5 -5 2 -55 3 -110 4 l-100 1 40 27 c54 37 216 123 231 123 7 0 16 5 19 10 9 15 -3 12 -65 -14z"/> <path d="M927 2310 c-166 -28 -266 -84 -312 -174 -30 -59 -30 -61 -30 -225 0 -154 2 -170 25 -226 28 -68 63 -93 165 -120 80 -20 156 -19 250 5 121 31 225 102 266 182 64 125 65 372 2 480 -42 72 -199 106 -366 78z m283 -43 c55 -27 85 -70 101 -145 15 -73 6 -240 -16 -311 -57 -183 -343 -291 -560 -210 -99 37 -124 87 -132 259 -11 235 48 345 216 401 130 44 309 47 391 6z"/> <path d="M893 2225 c-75 -17 -158 -59 -183 -94 -45 -65 -67 -202 -50 -319 14 -101 29 -125 92 -152 140 -61 339 -22 438 86 51 56 73 130 72 249 0 120 -23 191 -72 219 -45 26 -205 32 -297 11z m258 -15 c20 -6 42 -17 48 -24 10 -12 -2 -13 -71 -9 -81 5 -194 -9 -211 -26 -4 -4 21 -3 58 4 73 14 186 12 226 -3 32 -13 41 -51 40 -168 -1 -117 -23 -179 -81 -235 -67 -66 -140 -92 -255 -93 -104 -1 -150 17 -162 62 -5 15 -8 83 -7 152 1 95 -1 117 -8 90 -6 -19 -8 -87 -6 -152 2 -92 0 -114 -9 -106 -22 18 -36 91 -37 193 -1 195 46 266 204 307 73 19 216 23 271 8z"/> <path d="M1832 2306 c-30 -7 -66 -22 -80 -33 -90 -65 -115 -315 -50 -492 33 -89 132 -169 258 -208 78 -24 238 -24 308 0 81 29 108 58 134 140 18 57 23 94 22 182 -1 231 -66 333 -247 390 -100 32 -264 42 -345 21z m311 -32 c163 -42 229 -113 258 -278 14 -81 7 -207 -16 -284 -13 -41 -25 -59 -56 -82 -43 -31 -150 -60 -221 -60 -111 1 -258 60 -332 134 -49 48 -70 100 -87 217 -20 138 16 296 77 335 67 44 243 53 377 18z"/> <path d="M1865 2231 c-79 -19 -109 -67 -120 -191 -13 -147 24 -267 102 -324 81 -60 144 -80 258 -80 87 -1 106 2 150 24 79 40 90 68 90 230 0 88 -5 148 -14 173 -17 49 -64 103 -110 126 -82 42 -267 63 -356 42z m298 -39 c80 -29 111 -54 137 -109 45 -94 35 -367 -14 -386 -12 -5 -12 1 -4 31 12 44 5 231 -12 285 -23 78 -99 131 -216 153 -57 10 -35 -5 33 -22 72 -19 127 -54 148 -95 36 -69 54 -287 30 -351 -11 -27 -73 -43 -170 -42 -76 0 -99 4 -148 27 -115 52 -160 107 -173 211 -19 138 -6 242 31 256 12 4 57 11 100 15 116 9 107 18 -12 13 -57 -3 -103 -3 -103 -1 0 2 19 13 43 24 36 17 57 19 157 16 83 -3 131 -10 173 -25z"/> <path d="M1400 1771 c0 -5 -2 -15 -5 -23 -4 -10 18 -13 109 -13 109 0 113 1 106 20 -6 18 -18 20 -109 23 -59 2 -101 -1 -101 -7z"/> <path d="M2553 1070 c0 -47 2 -66 4 -42 2 23 2 61 0 85 -2 23 -4 4 -4 -43z"/> <path d="M2542 857 c-7 -8 -6 -17 3 -30 12 -16 13 -16 19 5 10 40 0 52 -22 25z"/> <path d="M2313 693 c-37 -19 -44 -38 -10 -28 23 7 68 45 52 44 -6 0 -25 -8 -42 -16z"/> <path d="M2095 603 c-402 -143 -751 -146 -1158 -12 -132 44 -127 42 -127 30 0 -15 276 -104 361 -116 24 -4 46 -8 49 -10 4 -2 29 -7 56 -11 27 -3 52 -8 56 -10 9 -6 335 -7 345 -1 4 3 33 8 64 11 71 8 77 10 169 34 159 43 300 96 300 114 0 11 -4 10 -115 -29z"/> <path d="M1420 1888 c0 -4 19 -8 42 -8 23 0 38 3 34 7 -10 10 -76 11 -76 1z"/> <path d="M1184 1251 c-12 -5 -31 -22 -43 -37 -19 -24 -21 -39 -21 -140 0 -125 9 -158 51 -180 46 -23 94 -18 131 15 l33 30 -3 143 c-2 100 -6 147 -15 156 -17 16 -105 25 -133 13z m90 -27 c32 -12 15 -24 -33 -24 -44 0 -52 -4 -75 -32 -14 -18 -26 -27 -26 -20 0 19 20 55 39 69 17 13 69 17 95 7z m-1 -41 c15 -14 -18 -33 -57 -33 l-41 0 30 20 c31 20 56 25 68 13z m8 -63 c27 0 29 -2 29 -41 0 -43 3 -42 -57 -24 -13 3 -38 -2 -62 -13 l-39 -19 -5 23 c-9 51 3 73 42 77 20 2 42 2 49 0 8 -2 27 -3 43 -3z m-71 -114 c0 -13 4 -13 25 -2 37 20 70 10 73 -21 2 -30 -21 -61 -56 -74 -57 -22 -135 57 -96 96 20 19 54 20 54 1z"/> <path d="M1710 1247 c-13 -7 -27 -23 -31 -37 -12 -42 -10 -249 2 -273 19 -37 52 -57 94 -57 47 0 79 19 100 60 21 40 21 220 0 260 -28 53 -108 76 -165 47z m121 -38 c25 -25 19 -35 -12 -19 -12 7 -43 10 -70 8 -27 -3 -49 -2 -49 1 0 36 98 43 131 10z m-16 -39 c0 -11 -12 -15 -43 -15 -47 -1 -77 10 -52 19 55 18 95 17 95 -4z m13 -54 c30 -7 32 -10 32 -53 0 -45 0 -46 -20 -28 -23 21 -102 24 -125 5 -13 -11 -15 -6 -15 33 0 27 5 47 13 50 16 5 74 2 115 -7z m-39 -108 c38 6 71 -7 71 -27 0 -27 -36 -68 -65 -75 -51 -13 -109 44 -97 96 4 20 43 29 57 13 6 -5 21 -9 34 -7z"/> </g> </svg> 